<?xml version="1.0" encoding="UTF-8" standalone="no"?>
<svg
   width="1280"
   height="420"
   viewBox="0 0 1280 420"
   fill="none"
   role="img"
   aria-label="GameTopUp hero"
   version="1.1"
   id="svg29"
   sodipodi:docname="readme-hero.svg"
   inkscape:version="1.4.3 (0d15f75, 2025-12-25)"
   xmlns:inkscape="http://www.inkscape.org/namespaces/inkscape"
   xmlns:sodipodi="http://sodipodi.sourceforge.net/DTD/sodipodi-0.dtd"
   xmlns="http://www.w3.org/2000/svg"
   xmlns:svg="http://www.w3.org/2000/svg">
  <sodipodi:namedview
     id="namedview29"
     pagecolor="#ffffff"
     bordercolor="#000000"
     borderopacity="0.25"
     inkscape:showpageshadow="2"
     inkscape:pageopacity="0.0"
     inkscape:pagecheckerboard="0"
     inkscape:deskcolor="#d1d1d1"
     inkscape:zoom="1.3875"
     inkscape:cx="640"
     inkscape:cy="206.48649"
     inkscape:window-width="1920"
     inkscape:window-height="1009"
     inkscape:window-x="-8"
     inkscape:window-y="-8"
     inkscape:window-maximized="1"
     inkscape:current-layer="svg29" />
  <defs
     id="defs18">
    <linearGradient
       id="accent"
       x1="606"
       y1="92"
       x2="1096"
       y2="258"
       gradientUnits="userSpaceOnUse">
      <stop
         stop-color="#22D3EE"
         id="stop1" />
      <stop
         offset="1"
         stop-color="#67E8F9"
         id="stop2" />
    </linearGradient>
    <radialGradient
       id="bgGlow"
       cx="0"
       cy="0"
       r="1"
       gradientUnits="userSpaceOnUse"
       gradientTransform="translate(640 210) rotate(90) scale(162 520)">
      <stop
         offset="0"
         stop-color="#0EA5E9"
         stop-opacity="0.18"
         id="stop3" />
      <stop
         offset="0.55"
         stop-color="#22D3EE"
         stop-opacity="0.08"
         id="stop4" />
      <stop
         offset="1"
         stop-color="#22D3EE"
         stop-opacity="0"
         id="stop5" />
    </radialGradient>
    <filter
       id="softGlow"
       x="-20%"
       y="-40%"
       width="140%"
       height="180%">
      <feGaussianBlur
         stdDeviation="12"
         result="blur"
         id="feGaussianBlur5" />
      <feMerge
         id="feMerge6">
        <feMergeNode
           in="blur"
           id="feMergeNode5" />
        <feMergeNode
           in="SourceGraphic"
           id="feMergeNode6" />
      </feMerge>
    </filter>
    <radialGradient
       id="logo-bgGlow"
       cx="0"
       cy="0"
       r="1"
       gradientUnits="userSpaceOnUse"
       gradientTransform="translate(256 256) rotate(90) scale(210 210)">
      <stop
         offset="0"
         stop-color="#22F3FF"
         stop-opacity="0.18"
         id="stop6" />
      <stop
         offset="0.45"
         stop-color="#00B7FF"
         stop-opacity="0.07"
         id="stop7" />
      <stop
         offset="1"
         stop-color="#2563EB"
         stop-opacity="0"
         id="stop8" />
    </radialGradient>
    <linearGradient
       id="logo-hexStroke"
       x1="92"
       y1="80"
       x2="420"
       y2="432"
       gradientUnits="userSpaceOnUse">
      <stop
         stop-color="#22F3FF"
         id="stop9" />
      <stop
         offset="0.5"
         stop-color="#00B7FF"
         id="stop10" />
      <stop
         offset="1"
         stop-color="#2563EB"
         id="stop11" />
    </linearGradient>
    <linearGradient
       id="logo-tFill"
       x1="278"
       y1="160"
       x2="390"
       y2="390"
       gradientUnits="userSpaceOnUse">
      <stop
         stop-color="#7DF9FF"
         id="stop12" />
      <stop
         offset="0.45"
         stop-color="#11D9E8"
         id="stop13" />
      <stop
         offset="1"
         stop-color="#2563EB"
         id="stop14" />
    </linearGradient>
    <linearGradient
       id="logo-gFill"
       x1="120"
       y1="130"
       x2="270"
       y2="390"
       gradientUnits="userSpaceOnUse">
      <stop
         stop-color="#FFFFFF"
         id="stop15" />
      <stop
         offset="0.55"
         stop-color="#E8EEF5"
         id="stop16" />
      <stop
         offset="1"
         stop-color="#AEB9C8"
         id="stop17" />
    </linearGradient>
    <filter
       id="logo-neonGlow"
       x="-0.11162791"
       y="-0.10105263"
       width="1.2232558"
       height="1.2021053">
      <feGaussianBlur
         stdDeviation="8"
         result="blur"
         id="feGaussianBlur17" />
      <feColorMatrix
         in="blur"
         type="matrix"
         values="0 0 0 0 0                 0 0 0 0 0.75                 0 0 0 0 1                 0 0 0 0.75 0"
         id="feColorMatrix17" />
      <feMerge
         id="feMerge18">
        <feMergeNode
           id="feMergeNode17" />
        <feMergeNode
           in="SourceGraphic"
           id="feMergeNode18" />
      </feMerge>
    </filter>
    <filter
       id="logo-softShadow"
       x="0"
       y="0"
       width="1.0569733"
       height="1.0727273">
      <feDropShadow
         dx="0"
         dy="12"
         stdDeviation="12"
         flood-color="#000814"
         flood-opacity="0.65" />
    </filter>
  </defs>
  <rect
     width="1280"
     height="420"
     rx="36"
     fill="#07111F"
     id="rect18" />
  <rect
     x="24"
     y="24"
     width="1232"
     height="372"
     rx="28"
     fill="url(#bgGlow)"
     id="rect19" />
  <g
     transform="translate(68 62) scale(0.58)"
     id="g26">
    <rect
       width="512"
       height="512"
       rx="72"
       fill="none"
       id="rect20" />
    <circle
       cx="256"
       cy="256"
       r="206"
       fill="url(#logo-bgGlow)"
       id="circle20" />
    <path
       d="M256 44L435 148V356L256 468L77 356V148L256 44Z"
       fill="#06111F"
       stroke="url(#logo-hexStroke)"
       stroke-width="9"
       filter="url(#logo-neonGlow)"
       id="path20" />
    <path
       d="M256 70L410 160V344L256 442L102 344V160L256 70Z"
       stroke="#0EA5E9"
       stroke-opacity="0.18"
       stroke-width="4"
       id="path21" />
    <g
       transform="skewX(-10) translate(34 0)"
       filter="url(#logo-softShadow)"
       id="g25">
      <path
         d="M104 167L174 125H288L309 153L276 180H183L151 199L136 260L159 319L214 350H252L257 298H205L213 254H312L296 388H206L111 335L77 264L96 190L104 167Z"
         fill="url(#logo-gFill)"
         id="path22" />
      <path
         d="M119 181L181 144H278L291 154L268 171H187L162 186L145 259L164 307L216 336H241L246 312"
         stroke="white"
         stroke-opacity="0.38"
         stroke-width="5"
         stroke-linecap="round"
         stroke-linejoin="round"
         id="path23" />
      <path
         d="M260 199H414L396 249H347L323 389H268L292 249H242L260 199Z"
         fill="url(#logo-tFill)"
         filter="url(#logo-neonGlow)"
         id="path24" />
      <path
         d="M273 214H396L387 235H336L313 371"
         stroke="#CFFAFE"
         stroke-opacity="0.42"
         stroke-width="5"
         stroke-linecap="round"
         stroke-linejoin="round"
         id="path25" />
    </g>
    <path
       d="M384 118L417 104L404 137"
       stroke="#67E8F9"
       stroke-width="8"
       stroke-linecap="round"
       stroke-linejoin="round"
       opacity="0.9"
       id="path26" />
  </g>
  <g
     transform="translate(406 104)"
     id="g29">
    <path
       d="m 33.467773,88.839844 c 16.041016,0 27.546875,-9.994141 27.546875,-26.707032 V 53.902344 H 34.181641 V 64.77832 h 12.513671 c -0.167968,6.802735 -4.829101,11.043946 -13.101562,11.043946 -9.448242,0 -14.991211,-7.012696 -14.991211,-19.19043 0,-12.09375 5.836914,-19.022461 14.949219,-19.022461 6.172851,0 10.37207,3.06543 11.799804,8.230469 H 60.342773 C 58.789062,33.368164 47.661133,24.591797 33.299805,24.591797 c -16.670899,0 -29.8564456,11.799805 -29.8564456,32.25 0,19.77832 12.1357426,31.998047 30.0244136,31.998047 z m 46.614846,0 c 6.508789,0 11.043945,-2.603516 13.605468,-7.432617 h 0.37793 V 88 H 107.83945 V 56.12793 c 0,-10.078125 -9.196284,-15.663086 -20.870113,-15.663086 -11.757812,0 -19.148437,5.500976 -20.996093,13.521484 l 13.269531,1.72168 c 0.797852,-2.939453 3.527344,-4.829102 7.600586,-4.829102 3.989258,0 6.382812,1.847656 6.382812,5.081055 v 0.167969 c 0,2.897461 -3.191406,3.485351 -11.127929,4.157226 -9.490235,0.797852 -17.46875,4.283203 -17.46875,14.697266 0,9.280273 6.424804,13.857422 15.453125,13.857422 z m 4.451172,-9.700196 c -3.527344,0 -6.046875,-1.679687 -6.046875,-4.829101 0,-3.107422 2.435546,-4.955078 6.760742,-5.584961 2.729492,-0.419922 6.424804,-1.049805 8.104492,-1.931641 v 4.493164 c 0,4.619141 -3.905273,7.852539 -8.818359,7.852539 z M 114.93965,88 h 14.65527 V 60.117187 c 0,-4.913085 2.81348,-7.726562 6.80274,-7.726562 3.90527,0 6.55078,2.729492 6.55078,7.054687 V 88 h 14.06738 V 59.823242 c 0,-4.493164 2.56153,-7.432617 6.71875,-7.432617 3.86328,0 6.63477,2.519531 6.63477,7.264648 V 88 h 14.61328 V 56.337891 c 0,-9.910157 -6.25684,-15.915039 -15.0332,-15.915039 -6.34082,0 -12.3877,3.191406 -15.24317,10.875976 -2.30957,-7.68457 -6.13086,-10.875976 -12.09375,-10.875976 -5.66894,0 -10.91797,2.89746 -13.52148,9.952148 l -0.67188,-9.322266 h -13.47949 z m 99.02109,0.881836 c 11.37988,0 19.06445,-5.165039 21.41601,-13.311524 l -13.05957,-2.141601 c -1.17578,3.149414 -4.15722,4.829101 -8.10449,4.829101 -5.54297,0 -9.28027,-3.359375 -9.53222,-10.162109 h 31.36816 v -3.695312 c 0,-15.495118 -9.44824,-23.935547 -22.63379,-23.935547 -14.10937,0 -23.13769,9.742187 -23.13769,24.229492 0,15.033203 8.94433,24.1875 23.68359,24.1875 z m -9.19629,-29.310547 c 0.5459,-5.165039 3.61133,-8.482422 8.77637,-8.482422 5.12304,0 8.02051,3.149414 8.6084,8.482422 z"
       id="text26"
       style="font-weight:800;font-size:86px;font-family:Inter, ui-sans-serif, system-ui, '-apple-system', BlinkMacSystemFont, 'Segoe UI', sans-serif;letter-spacing:-2.6;fill:#ffffff"
       aria-label="Game" />
    <path
       d="m 232.77148,37.525391 h 18.93848 V 88 h 14.78125 V 37.525391 h 18.93848 v -12.09375 h -52.65821 z m 72.73399,51.356445 c 14.65527,0 23.55762,-9.742188 23.55762,-24.1875 0,-14.487305 -8.90235,-24.229492 -23.55762,-24.229492 -14.69727,0 -23.59961,9.742187 -23.59961,24.229492 0,14.445312 8.90234,24.1875 23.59961,24.1875 z m 0,-11.211914 c -5.62695,0 -8.65039,-5.249024 -8.65039,-13.05957 0,-7.85254 3.02344,-12.933594 8.65039,-12.933594 5.62695,0 8.65039,5.081054 8.65039,12.933594 0,7.810546 -3.02344,13.05957 -8.65039,13.05957 z m 28.85215,27.882808 h 14.65527 V 80.399414 h 0.33594 c 1.84766,4.241211 6.00488,8.272461 13.18555,8.272461 10.41406,0 18.8125,-8.188477 18.8125,-24.103516 0,-16.460937 -8.86035,-24.103515 -18.72852,-24.103515 -7.47461,0 -11.50586,4.409179 -13.26953,8.65039 h -0.50391 v -8.0625 h -14.4873 z M 357.53731,77.25 c -5.58496,0 -8.86035,-4.99707 -8.86035,-12.681641 0,-7.768554 3.27539,-12.639648 8.86035,-12.639648 5.66894,0 8.73437,4.99707 8.73437,12.639648 0,7.642578 -3.10742,12.681641 -8.73437,12.681641 z m 55.47519,11.547852 c 15.74707,0 26.41308,-9.028321 26.41308,-23.011719 V 25.431641 h -14.82324 v 39.136718 c 0,6.592774 -4.66113,11.295899 -11.58984,11.295899 -6.84473,0 -11.54785,-4.703125 -11.54785,-11.295899 V 25.431641 H 386.6414 v 40.354492 c 0,13.983398 10.54004,23.011719 26.3711,23.011719 z m 33.51329,16.754878 h 14.65527 V 80.399414 h 0.33594 c 1.84765,4.241211 6.00488,8.272461 13.18555,8.272461 10.41406,0 18.8125,-8.188477 18.8125,-24.103516 0,-16.460937 -8.86036,-24.103515 -18.72852,-24.103515 -7.47461,0 -11.50586,4.409179 -13.26953,8.65039 h -0.50391 v -8.0625 h -14.4873 z M 469.70547,77.25 c -5.58496,0 -8.86035,-4.99707 -8.86035,-12.681641 0,-7.768554 3.27539,-12.639648 8.86035,-12.639648 5.66895,0 8.73438,4.99707 8.73438,12.639648 0,7.642578 -3.10742,12.681641 -8.73438,12.681641 z"
       id="text27"
       style="font-weight:800;font-size:86px;font-family:Inter, ui-sans-serif, system-ui, '-apple-system', BlinkMacSystemFont, 'Segoe UI', sans-serif;letter-spacing:-2.6;fill:#22d3ee"
       aria-label="TopUp" />
    <path
       d="M 7.3730469,119.62891 H 4.2558594 V 140 h 3.1171875 z m 7.4871091,11.32031 c 0,-2.41992 1.503906,-3.80078 3.554688,-3.80078 1.996093,0 3.226562,1.3125 3.226562,3.51367 V 140 h 3.007813 v -9.70703 c 0,-3.77344 -2.078125,-5.76953 -5.195313,-5.76953 -2.160156,0 -3.759766,0.9707 -4.716797,3.13086 l -0.01367,-2.93946 H 11.852344 V 140 h 3.007812 z m 20.571094,-6.23438 h -3.048829 v -3.63671 h -3.007812 v 3.63671 h -2.228516 v 2.44727 h 2.228516 v 8.95508 c 0,2.59765 1.599609,4.08789 4.375,4.08789 0.697266,0 1.462891,-0.0957 2.105469,-0.31446 l -0.533203,-2.40625 c -0.369141,0.082 -0.957032,0.16407 -1.271485,0.16407 -1.189453,0 -1.667969,-0.54688 -1.667969,-1.77735 v -8.70898 h 3.048829 z m 9.510545,15.59961 c 3.267578,0 5.605469,-1.59961 6.330078,-3.97851 l -2.830078,-0.66992 c -0.533203,1.42187 -1.791015,2.16015 -3.472656,2.16015 -2.501953,0 -4.197266,-1.59961 -4.306641,-4.55273 h 10.841797 v -1.06641 c 0,-5.50976 -3.335937,-7.68359 -6.822265,-7.68359 -4.279297,0 -7.041016,3.24023 -7.041016,7.94336 0,4.74414 2.789063,7.84765 7.300781,7.84765 z m -4.265625,-9.2832 c 0.164063,-2.20117 1.613282,-4.01953 4.019532,-4.01953 2.310546,0 3.609375,1.61328 3.828125,4.01953 z M 54.999218,140 h 3.007812 v -9.2832 c 0,-2.00977 1.53125,-3.43164 3.636719,-3.43164 0.628906,0 1.353516,0.10937 1.572266,0.16406 v -2.87109 c -0.314453,-0.041 -0.888672,-0.082 -1.271485,-0.082 -1.791015,0 -3.308593,1.01172 -3.86914,2.67969 h -0.164063 v -2.46094 h -2.912109 z m 11.383594,0 h 3.007813 v -9.50195 c 0,-2.22852 1.449219,-3.4043 3.130859,-3.4043 1.613282,0 2.789063,1.08008 2.789063,2.70703 V 140 h 2.966797 v -9.78906 c 0,-1.81836 1.148437,-3.11719 3.048828,-3.11719 1.558594,0 2.871094,0.86133 2.871094,2.89844 V 140 h 3.007812 v -10.30859 c 0,-3.47266 -2.132812,-5.23633 -4.839844,-5.23633 -2.173828,0 -4.060547,1.14844 -4.839843,3.21289 -0.601563,-2.02344 -1.914063,-3.21289 -3.910157,-3.21289 -1.818359,0 -3.527343,0.99805 -4.30664,3.11719 l -0.06836,-2.85743 h -2.857422 z m 31.658982,0.31445 c 3.267576,0 5.605466,-1.59961 6.330076,-3.97851 l -2.83008,-0.66992 c -0.5332,1.42187 -1.791012,2.16015 -3.472652,2.16015 -2.501954,0 -4.197266,-1.59961 -4.306641,-4.55273 h 10.841793 v -1.06641 c 0,-5.50976 -3.33593,-7.68359 -6.822262,-7.68359 -4.279297,0 -7.041015,3.24023 -7.041015,7.94336 0,4.74414 2.789062,7.84765 7.300781,7.84765 z m -4.265625,-9.2832 c 0.164062,-2.20117 1.613281,-4.01953 4.019531,-4.01953 2.31055,0 3.60938,1.61328 3.82813,4.01953 z m 20.010551,9.26953 c 2.76172,0 3.86914,-1.72266 4.40234,-2.69336 h 0.2461 V 140 h 2.92578 v -20.37109 h -3.00781 v 7.57422 h -0.16407 c -0.51953,-0.94336 -1.55859,-2.67969 -4.40234,-2.67969 -3.67773,0 -6.39844,2.89844 -6.39844,7.875 0,4.93554 2.67969,7.90234 6.39844,7.90234 z m 0.65625,-2.55664 c -2.61133,0 -3.97852,-2.33789 -3.97852,-5.37305 0,-3.00781 1.32618,-5.29101 3.97852,-5.29101 2.58398,0 3.96484,2.11914 3.96484,5.29101 0,3.18555 -1.4082,5.37305 -3.96484,5.37305 z M 125.60781,140 h 3.00781 v -15.28516 h -3.00781 z m 1.51758,-17.62305 c 1.03906,0 1.90039,-0.79297 1.90039,-1.77734 0,-0.99805 -0.86133,-1.79102 -1.90039,-1.79102 -1.03906,0 -1.90039,0.79297 -1.90039,1.79102 0,0.98437 0.86133,1.77734 1.90039,1.77734 z m 10.01641,17.96485 c 2.47461,0 3.92383,-1.24414 4.51172,-2.4336 h 0.15039 V 140 h 2.91211 v -10.14453 c 0,-4.41602 -3.51367,-5.33203 -5.97461,-5.33203 -2.7207,0 -5.29102,1.0664 -6.33008,3.80078 l 2.83008,0.73828 c 0.42383,-1.03906 1.54492,-2.0918 3.54101,-2.0918 1.91407,0 2.92579,0.98438 2.92579,2.67969 v 0.082 c 0,1.08008 -1.16211,1.06641 -3.85547,1.38086 -2.88477,0.32813 -5.87891,1.09375 -5.87891,4.56641 0,3.00781 2.25586,4.66211 5.16797,4.66211 z m 0.66992,-2.41993 c -1.68164,0 -2.88476,-0.75195 -2.88476,-2.20117 0,-1.57226 1.39453,-2.14648 3.08984,-2.3789 0.92969,-0.12305 3.25391,-0.36914 3.70508,-0.80664 v 1.95507 c 0,1.79102 -1.46289,3.43164 -3.91016,3.43164 z M 148.96289,140 h 3.00781 v -9.2832 c 0,-2.00977 1.53125,-3.43164 3.63672,-3.43164 0.62891,0 1.35352,0.10937 1.57227,0.16406 v -2.87109 c -0.31446,-0.041 -0.88867,-0.082 -1.27149,-0.082 -1.79101,0 -3.30859,1.01172 -3.86914,2.67969 H 151.875 v -2.46094 h -2.91211 z m 11.26054,5.49609 c 0.36915,0.16407 1.16211,0.32813 2.10547,0.32813 2.46094,0 3.97852,-1.25781 4.90821,-3.70508 l 6.64453,-17.4043 h -3.22656 l -3.07618,8.68164 c -0.47851,1.32618 -0.82031,2.65235 -1.16211,3.96485 -0.32812,-1.3125 -0.64257,-2.625 -1.10742,-3.96485 l -3.02148,-8.68164 h -3.25391 l 5.81055,15.35352 -0.32813,1.12109 c -0.56054,1.96875 -1.65429,2.35157 -3.21289,1.94141 l -0.34179,-0.082 z m 32.96642,-5.22265 c 4.93555,0 8.50391,-3.22657 8.50391,-8.38086 v -2.33789 h -8.03907 v 2.57031 h 4.99024 c -0.0684,3.25391 -2.21485,5.30469 -5.44141,5.30469 -3.5957,0 -6.19336,-2.70703 -6.19336,-7.61524 0,-4.92187 2.63867,-7.61523 6.07031,-7.61523 2.67969,0 4.49805,1.49023 5.23633,3.86914 h 3.19922 c -0.68359,-3.96484 -4.07422,-6.71289 -8.46289,-6.71289 -5.27734,0 -9.13281,3.96484 -9.13281,10.47265 0,6.43946 3.73242,10.44532 9.26953,10.44532 z m 16.61992,0.0684 c 2.47461,0 3.92383,-1.24414 4.51172,-2.4336 h 0.15039 V 140 h 2.91211 v -10.14453 c 0,-4.41602 -3.51367,-5.33203 -5.97461,-5.33203 -2.72071,0 -5.29102,1.0664 -6.33008,3.80078 l 2.83008,0.73828 c 0.42383,-1.03906 1.54492,-2.0918 3.54101,-2.0918 1.91407,0 2.92578,0.98438 2.92578,2.67969 v 0.082 c 0,1.08008 -1.1621,1.06641 -3.85546,1.38086 -2.88477,0.32813 -5.87891,1.09375 -5.87891,4.56641 0,3.00781 2.25586,4.66211 5.16797,4.66211 z m 0.66992,-2.41993 c -1.68164,0 -2.88477,-0.75195 -2.88477,-2.20117 0,-1.57226 1.39454,-2.14648 3.08985,-2.3789 0.92969,-0.12305 3.2539,-0.36914 3.70508,-0.80664 v 1.95507 c 0,1.79102 -1.46289,3.43164 -3.91016,3.43164 z M 221.63086,140 h 3.00781 v -9.50195 c 0,-2.22852 1.44922,-3.4043 3.13086,-3.4043 1.61328,0 2.78906,1.08008 2.78906,2.70703 V 140 h 2.9668 v -9.78906 c 0,-1.81836 1.14844,-3.11719 3.04883,-3.11719 1.55859,0 2.87109,0.86133 2.87109,2.89844 V 140 h 3.00781 v -10.30859 c 0,-3.47266 -2.13281,-5.23633 -4.83984,-5.23633 -2.17383,0 -4.06055,1.14844 -4.83984,3.21289 -0.60157,-2.02344 -1.91407,-3.21289 -3.91016,-3.21289 -1.81836,0 -3.52734,0.99805 -4.30664,3.11719 l -0.0684,-2.85743 h -2.85742 z m 31.65898,0.31445 c 3.26758,0 5.60547,-1.59961 6.33008,-3.97851 l -2.83008,-0.66992 c -0.5332,1.42187 -1.79101,2.16015 -3.47266,2.16015 -2.50195,0 -4.19726,-1.59961 -4.30664,-4.55273 h 10.8418 v -1.06641 c 0,-5.50976 -3.33594,-7.68359 -6.82226,-7.68359 -4.2793,0 -7.04102,3.24023 -7.04102,7.94336 0,4.74414 2.78906,7.84765 7.30078,7.84765 z m -4.26562,-9.2832 c 0.16406,-2.20117 1.61328,-4.01953 4.01953,-4.01953 2.31054,0 3.60937,1.61328 3.82812,4.01953 z m 21.19493,-8.72266 h 6.35742 V 140 h 3.13086 v -17.69141 h 6.33008 v -2.67968 h -15.81836 z m 23.51053,18.00586 c 4.30664,0 7.15039,-3.1582 7.15039,-7.875 0,-4.75781 -2.84375,-7.91601 -7.15039,-7.91601 -4.30665,0 -7.13672,3.1582 -7.13672,7.91601 0,4.7168 2.83007,7.875 7.13672,7.875 z m 0,-2.54297 c -2.76172,0 -4.07422,-2.43359 -4.07422,-5.33203 0,-2.93945 1.3125,-5.37304 4.07422,-5.37304 2.78906,0 4.10156,2.44726 4.10156,5.37304 0,2.89844 -1.3125,5.33203 -4.10156,5.33203 z m 10.68634,7.94336 h 3.00781 v -8.10742 h 0.16406 c 0.5332,0.9707 1.64063,2.69336 4.41602,2.69336 3.71875,0 6.38476,-2.9668 6.38476,-7.90234 0,-4.97656 -2.7207,-7.875 -6.38476,-7.875 -2.85743,0 -3.88282,1.73633 -4.41602,2.67969 h -0.24609 v -2.48829 h -2.92578 z m 6.91796,-7.9707 c -2.54296,0 -3.96484,-2.1875 -3.96484,-5.37305 0,-3.17187 1.38086,-5.29101 3.96484,-5.29101 2.65235,0 3.97852,2.2832 3.97852,5.29101 0,3.03516 -1.36719,5.37305 -3.97852,5.37305 z m 19.57306,-7.64258 h -9.05078 v 2.61133 h 9.05078 z m 12.51834,10.21289 c 4.86719,0 8.09375,-3.03515 8.09375,-7.31445 v -13.37109 h -3.13085 v 13.11132 c 0,2.74805 -1.9004,4.74414 -4.9629,4.74414 -3.07617,0 -5.0039,-1.99609 -5.0039,-4.74414 v -13.11132 h -3.11719 V 133 c 0,4.2793 3.21289,7.31445 8.12109,7.31445 z m 12.57306,5.40039 h 3.00782 v -8.10742 h 0.16406 c 0.5332,0.9707 1.64062,2.69336 4.41601,2.69336 3.71875,0 6.38477,-2.9668 6.38477,-7.90234 0,-4.97656 -2.7207,-7.875 -6.38477,-7.875 -2.85742,0 -3.88281,1.73633 -4.41601,2.67969 h -0.2461 v -2.48829 h -2.92578 z m 6.91797,-7.9707 c -2.54297,0 -3.96484,-2.1875 -3.96484,-5.37305 0,-3.17187 1.38086,-5.29101 3.96484,-5.29101 2.65235,0 3.97852,2.2832 3.97852,5.29101 0,3.03516 -1.36719,5.37305 -3.97852,5.37305 z m 26.97812,2.5293 c 5.27734,0 9.17383,-3.9375 9.17383,-10.44532 0,-6.53515 -3.89649,-10.47265 -9.17383,-10.47265 -5.29101,0 -9.20117,3.9375 -9.20117,10.47265 0,6.50782 3.91016,10.44532 9.20117,10.44532 z m 0,-2.84375 c -3.5,0 -6.11133,-2.67969 -6.11133,-7.60157 0,-4.93554 2.61133,-7.6289 6.11133,-7.6289 3.47266,0 6.08399,2.67969 6.08399,7.6289 0,4.92188 -2.61133,7.60157 -6.08399,7.60157 z m 12.9422,8.28515 h 3.00781 v -8.10742 h 0.16407 c 0.5332,0.9707 1.64062,2.69336 4.41601,2.69336 3.71875,0 6.38477,-2.9668 6.38477,-7.90234 0,-4.97656 -2.72071,-7.875 -6.38477,-7.875 -2.85742,0 -3.88281,1.73633 -4.41601,2.67969 h -0.2461 v -2.48829 h -2.92578 z m 6.91797,-7.9707 c -2.54297,0 -3.96484,-2.1875 -3.96484,-5.37305 0,-3.17187 1.38086,-5.29101 3.96484,-5.29101 2.65234,0 3.97852,2.2832 3.97852,5.29101 0,3.03516 -1.36719,5.37305 -3.97852,5.37305 z m 17.18045,2.57031 c 3.26758,0 5.60547,-1.59961 6.33008,-3.97851 l -2.83008,-0.66992 c -0.5332,1.42187 -1.79102,2.16015 -3.47266,2.16015 -2.50195,0 -4.19726,-1.59961 -4.30664,-4.55273 h 10.8418 v -1.06641 c 0,-5.50976 -3.33594,-7.68359 -6.82227,-7.68359 -4.27929,0 -7.04101,3.24023 -7.04101,7.94336 0,4.74414 2.78906,7.84765 7.30078,7.84765 z m -4.26562,-9.2832 c 0.16406,-2.20117 1.61328,-4.01953 4.01953,-4.01953 2.31054,0 3.60937,1.61328 3.82812,4.01953 z M 436.99258,140 h 3.00782 v -9.2832 c 0,-2.00977 1.53125,-3.43164 3.63672,-3.43164 0.6289,0 1.35351,0.10937 1.57226,0.16406 v -2.87109 c -0.31445,-0.041 -0.88867,-0.082 -1.27148,-0.082 -1.79102,0 -3.3086,1.01172 -3.86914,2.67969 h -0.16407 v -2.46094 h -2.91211 z m 15.18436,0.3418 c 2.47461,0 3.92383,-1.24414 4.51172,-2.4336 h 0.15039 V 140 h 2.91211 v -10.14453 c 0,-4.41602 -3.51367,-5.33203 -5.97461,-5.33203 -2.7207,0 -5.29102,1.0664 -6.33008,3.80078 l 2.83008,0.73828 c 0.42383,-1.03906 1.54492,-2.0918 3.54102,-2.0918 1.91406,0 2.92578,0.98438 2.92578,2.67969 v 0.082 c 0,1.08008 -1.16211,1.06641 -3.85547,1.38086 -2.88477,0.32813 -5.87891,1.09375 -5.87891,4.56641 0,3.00781 2.25586,4.66211 5.16797,4.66211 z m 0.66992,-2.41993 c -1.68164,0 -2.88476,-0.75195 -2.88476,-2.20117 0,-1.57226 1.39453,-2.14648 3.08984,-2.3789 0.92969,-0.12305 3.25391,-0.36914 3.70508,-0.80664 v 1.95507 c 0,1.79102 -1.46289,3.43164 -3.91016,3.43164 z m 17.68634,-13.20703 h -3.04883 v -3.63671 h -3.00781 v 3.63671 h -2.22851 v 2.44727 h 2.22851 v 8.95508 c 0,2.59765 1.59961,4.08789 4.375,4.08789 0.69727,0 1.46289,-0.0957 2.10547,-0.31446 l -0.5332,-2.40625 c -0.36914,0.082 -0.95703,0.16407 -1.27149,0.16407 -1.18945,0 -1.66797,-0.54688 -1.66797,-1.77735 v -8.70898 h 3.04883 z M 473.72736,140 h 3.00781 v -15.28516 h -3.00781 z m 1.51757,-17.62305 c 1.03907,0 1.90039,-0.79297 1.90039,-1.77734 0,-0.99805 -0.86132,-1.79102 -1.90039,-1.79102 -1.03906,0 -1.90039,0.79297 -1.90039,1.79102 0,0.98437 0.86133,1.77734 1.90039,1.77734 z m 12.16288,17.9375 c 4.30664,0 7.15039,-3.1582 7.15039,-7.875 0,-4.75781 -2.84375,-7.91601 -7.15039,-7.91601 -4.30664,0 -7.13672,3.1582 -7.13672,7.91601 0,4.7168 2.83008,7.875 7.13672,7.875 z m 0,-2.54297 c -2.76172,0 -4.07422,-2.43359 -4.07422,-5.33203 0,-2.93945 1.3125,-5.37304 4.07422,-5.37304 2.78906,0 4.10156,2.44726 4.10156,5.37304 0,2.89844 -1.3125,5.33203 -4.10156,5.33203 z m 13.69415,-6.82226 c 0,-2.41992 1.50391,-3.80078 3.55469,-3.80078 1.99609,0 3.22656,1.3125 3.22656,3.51367 V 140 h 3.00781 v -9.70703 c 0,-3.77344 -2.07812,-5.76953 -5.19531,-5.76953 -2.16016,0 -3.75977,0.9707 -4.7168,3.13086 l -0.0137,-2.93946 h -2.87109 V 140 h 3.00781 z m 19.51834,9.36523 c 3.73242,0 6.30273,-1.96875 6.30273,-4.75781 0,-2.11914 -1.33984,-3.48633 -4.16992,-4.12891 l -2.46093,-0.54687 c -1.68165,-0.38281 -2.36524,-0.98438 -2.36524,-1.99609 0,-1.14844 1.25781,-1.98243 2.91211,-1.98243 1.80469,0 2.66602,0.95704 3.0625,2.02344 l 2.69336,-0.58789 c -0.65625,-2.26953 -2.47461,-3.81445 -5.7832,-3.81445 -3.45899,0 -5.91993,1.81836 -5.91993,4.55273 0,2.1875 1.36719,3.58203 4.21094,4.22461 l 2.57031,0.58789 c 1.44922,0.32813 2.14649,0.95703 2.14649,1.92774 0,1.13476 -1.23047,2.06445 -3.17188,2.06445 -1.77734,0 -2.93945,-0.73828 -3.36328,-2.33789 l -2.83008,0.58789 c 0.54688,2.70703 2.84375,4.18359 6.16602,4.18359 z m 24.53088,0.0274 c 4.78516,0 7.54688,-2.51563 7.54688,-5.97461 0,-3.67774 -3.26758,-5.07227 -5.86524,-5.74219 l -1.98242,-0.51953 c -1.55859,-0.41016 -3.66406,-1.13477 -3.66406,-3.0625 0,-1.72266 1.55859,-2.98047 4.0332,-2.98047 2.31055,0 3.96485,1.06641 4.16993,2.92578 h 3.03515 c -0.0957,-3.24023 -2.95312,-5.63281 -7.13672,-5.63281 -4.10156,0 -7.21875,2.33789 -7.21875,5.86523 0,2.78907 1.96875,4.49805 5.30469,5.38672 l 2.37891,0.65625 c 2.1875,0.58789 3.86914,1.28516 3.86914,3.0625 0,1.96875 -1.90039,3.28125 -4.48438,3.28125 -2.35156,0 -4.32031,-1.03906 -4.49804,-3.26758 h -3.13086 c 0.1914,3.71875 3.0625,6.00196 7.64257,6.00196 z m 11.01447,5.15429 c 0.36914,0.16407 1.16211,0.32813 2.10547,0.32813 2.46094,0 3.97851,-1.25781 4.9082,-3.70508 l 6.64453,-17.4043 h -3.22656 l -3.07617,8.68164 c -0.47852,1.32618 -0.82031,2.65235 -1.16211,3.96485 -0.32813,-1.3125 -0.64258,-2.625 -1.10742,-3.96485 l -3.02149,-8.68164 h -3.2539 l 5.81054,15.35352 -0.32812,1.12109 c -0.56055,1.96875 -1.6543,2.35157 -3.21289,1.94141 l -0.3418,-0.082 z m 21.99292,-5.18164 c 3.73242,0 6.30273,-1.96875 6.30273,-4.75781 0,-2.11914 -1.33984,-3.48633 -4.16992,-4.12891 l -2.46094,-0.54687 c -1.68164,-0.38281 -2.36523,-0.98438 -2.36523,-1.99609 0,-1.14844 1.25781,-1.98243 2.91211,-1.98243 1.80469,0 2.66601,0.95704 3.0625,2.02344 l 2.69336,-0.58789 c -0.65625,-2.26953 -2.47461,-3.81445 -5.7832,-3.81445 -3.45899,0 -5.91993,1.81836 -5.91993,4.55273 0,2.1875 1.36719,3.58203 4.21094,4.22461 l 2.57031,0.58789 c 1.44922,0.32813 2.14649,0.95703 2.14649,1.92774 0,1.13476 -1.23047,2.06445 -3.17188,2.06445 -1.77734,0 -2.93945,-0.73828 -3.36328,-2.33789 l -2.83008,0.58789 c 0.54688,2.70703 2.84375,4.18359 6.16602,4.18359 z m 16.33282,-15.59961 h -3.04882 v -3.63671 h -3.00782 v 3.63671 h -2.22851 v 2.44727 h 2.22851 v 8.95508 c 0,2.59765 1.59961,4.08789 4.375,4.08789 0.69727,0 1.46289,-0.0957 2.10547,-0.31446 l -0.5332,-2.40625 c -0.36914,0.082 -0.95703,0.16407 -1.27149,0.16407 -1.18945,0 -1.66796,-0.54688 -1.66796,-1.77735 v -8.70898 h 3.04882 z m 9.51056,15.59961 c 3.26758,0 5.60547,-1.59961 6.33008,-3.97851 l -2.83008,-0.66992 c -0.5332,1.42187 -1.79101,2.16015 -3.47265,2.16015 -2.50196,0 -4.19727,-1.59961 -4.30664,-4.55273 h 10.84179 v -1.06641 c 0,-5.50976 -3.33593,-7.68359 -6.82226,-7.68359 -4.2793,0 -7.04102,3.24023 -7.04102,7.94336 0,4.74414 2.78906,7.84765 7.30078,7.84765 z m -4.26562,-9.2832 c 0.16406,-2.20117 1.61328,-4.01953 4.01953,-4.01953 2.31055,0 3.60937,1.61328 3.82812,4.01953 z M 614.05939,140 h 3.00781 v -9.50195 c 0,-2.22852 1.44922,-3.4043 3.13086,-3.4043 1.61328,0 2.78906,1.08008 2.78906,2.70703 V 140 h 2.9668 v -9.78906 c 0,-1.81836 1.14844,-3.11719 3.04883,-3.11719 1.55859,0 2.87109,0.86133 2.87109,2.89844 V 140 h 3.00781 v -10.30859 c 0,-3.47266 -2.13281,-5.23633 -4.83984,-5.23633 -2.17383,0 -4.06055,1.14844 -4.83984,3.21289 -0.60157,-2.02344 -1.91407,-3.21289 -3.91016,-3.21289 -1.81836,0 -3.52734,0.99805 -4.30664,3.11719 l -0.0684,-2.85743 h -2.85742 z"
       id="text28"
       style="font-weight:500;font-size:28px;font-family:Inter, ui-sans-serif, system-ui, '-apple-system', BlinkMacSystemFont, 'Segoe UI', sans-serif;letter-spacing:0.2;fill:#9fb3c8"
       aria-label="Intermediary Game Top-Up Operations System" />
  </g>
</svg>
